<?xml version="1.0" encoding="utf-8"?>
<!-- Generator: Adobe Illustrator 26.0.1, SVG Export Plug-In . SVG Version: 6.00 Build 0)  -->
<svg version="1.1" id="Layer_1" xmlns="http://www.w3.org/2000/svg" xmlns:xlink="http://www.w3.org/1999/xlink" x="0px" y="0px"
	 viewBox="0 0 157 149" style="enable-background:new 0 0 157 149;" xml:space="preserve">
<style type="text/css">
	.st0{fill:#FFFFFF;}
	.st1{fill:#D15400;}
	.st2{fill:#9B3F00;}
</style>
<g>
	
		<image style="overflow:visible;opacity:0.75;" width="235" height="227" xlink:href="1D58420A.png"  transform="matrix(1 0 0 1 -39 -39)">
	</image>
	<g>
		<polygon class="st0" points="141.7,78.3 126.6,63.1 126.6,63.1 78.9,15.5 31.3,63.1 15.3,79.1 31.3,79.1 31.3,133.6 126.6,133.6 
			126.6,78.3 		"/>
	</g>
</g>
<polyline class="st1" points="68.6,124.4 68.6,83.7 89.4,83.7 89.4,124.4 "/>
<rect x="93.4" y="99.7" transform="matrix(-1.836970e-16 1 -1 -1.836970e-16 217.8357 0.3014)" class="st2" width="30.7" height="18.8"/>
<rect x="34.8" y="99.7" transform="matrix(-1.836970e-16 1 -1 -1.836970e-16 159.1856 58.9514)" class="st2" width="30.7" height="18.8"/>
<polygon class="st2" points="68.6,83.7 79,40.3 89.4,83.7 "/>
<polygon class="st1" points="40.7,93.8 50.1,60.4 59.5,93.8 "/>
<polygon class="st1" points="99.4,93.8 108.8,60.4 118.2,93.8 "/>
</svg>
