<?xml version="1.0" encoding="utf-8"?>
<!-- Generator: Adobe Illustrator 26.0.1, SVG Export Plug-In . SVG Version: 6.00 Build 0)  -->
<svg version="1.1" id="Layer_1" xmlns="http://www.w3.org/2000/svg" xmlns:xlink="http://www.w3.org/1999/xlink" x="0px" y="0px"
	 viewBox="0 0 353 241" style="enable-background:new 0 0 353 241;" xml:space="preserve">
<style type="text/css">
	.st0{fill:none;}
	.st1{font-family:'MyriadPro-Regular';}
	.st2{font-size:12px;}
</style>
<g>
	<defs>
		<rect id="SVGID_1_" x="56" y="-56" transform="matrix(-1.836970e-16 1 -1 -1.836970e-16 297 -56)" width="241" height="353"/>
	</defs>
	<clipPath id="SVGID_00000065775356321254356130000005492898192893710763_">
		<use xlink:href="#SVGID_1_"  style="overflow:visible;"/>
	</clipPath>
</g>
<rect x="90" y="72" class="st0" width="173" height="97"/>
<text transform="matrix(1 0 0 1 90.0001 80.52)"><tspan x="0" y="0" class="st1 st2">&lt;?xml </tspan><tspan x="33" y="0" class="st1 st2">v</tspan><tspan x="38.6" y="0" class="st1 st2">ersion=&quot;1.0&quot; en</tspan><tspan x="114.6" y="0" class="st1 st2">c</tspan><tspan x="119.9" y="0" class="st1 st2">od</tspan><tspan x="133.3" y="0" class="st1 st2">-</tspan><tspan x="0" y="14.4" class="st1 st2">ing=&quot;utf-8&quot;?&gt;</tspan><tspan x="0" y="28.8" class="st1 st2">&lt;!-- </tspan><tspan x="19.8" y="28.8" class="st1 st2">G</tspan><tspan x="27.6" y="28.8" class="st1 st2">ene</tspan><tspan x="46.3" y="28.8" class="st1 st2">r</tspan><tspan x="50.2" y="28.8" class="st1 st2">a</tspan><tspan x="55.9" y="28.8" class="st1 st2">t</tspan><tspan x="59.8" y="28.8" class="st1 st2">o</tspan><tspan x="66.4" y="28.8" class="st1 st2">r</tspan><tspan x="70.4" y="28.8" class="st1 st2">: </tspan><tspan x="75.5" y="28.8" class="st1 st2">A</tspan><tspan x="82.7" y="28.8" class="st1 st2">dobe </tspan><tspan x="111.4" y="28.8" class="st1 st2">I</tspan><tspan x="114.4" y="28.8" class="st1 st2">llust</tspan><tspan x="135.4" y="28.8" class="st1 st2">r</tspan><tspan x="139.3" y="28.8" class="st1 st2">a</tspan><tspan x="145" y="28.8" class="st1 st2">t</tspan><tspan x="148.9" y="28.8" class="st1 st2">or </tspan><tspan x="0" y="43.2" class="st1 st2">26.0.1, SVG Expo</tspan><tspan x="82.4" y="43.2" class="st1 st2">r</tspan><tspan x="86.6" y="43.2" class="st1 st2">t </tspan><tspan x="93.1" y="43.2" class="st1 st2">P</tspan><tspan x="99.5" y="43.2" class="st1 st2">lug-</tspan><tspan x="119.3" y="43.2" class="st1 st2">I</tspan><tspan x="122.3" y="43.2" class="st1 st2">n . SVG </tspan><tspan x="0" y="57.6" class="st1 st2">V</tspan><tspan x="6.3" y="57.6" class="st1 st2">ersion: 6.00 Build 0)  --&gt;</tspan><tspan x="0" y="72" class="st1 st2">&lt;s</tspan><tspan x="11.9" y="72" class="st1 st2">v</tspan><tspan x="17.6" y="72" class="st1 st2">g </tspan><tspan x="26.8" y="72" class="st1 st2">v</tspan><tspan x="32.5" y="72" class="st1 st2">ersion=&quot;1.1&quot; id=&quot;L</tspan><tspan x="122.2" y="72" class="st1 st2">a</tspan><tspan x="127.9" y="72" class="st1 st2">y</tspan><tspan x="133.4" y="72" class="st1 st2">er_1&quot; </tspan><tspan x="0" y="86.4" class="st1 st2">xmlns=&quot;</tspan><tspan x="41" y="86.4" class="st1 st2">h</tspan><tspan x="47.6" y="86.4" class="st1 st2">ttp://</tspan><tspan x="73.1" y="86.4" class="st1 st2">w</tspan><tspan x="82.1" y="86.4" class="st1 st2">w</tspan><tspan x="90.9" y="86.4" class="st1 st2">-</tspan></text>
<rect x="90" y="72" class="st0" width="173" height="97"/>
<text transform="matrix(1 0 0 1 90.0001 80.52)"><tspan x="0" y="0" class="st1 st2">&lt;?xml </tspan><tspan x="33" y="0" class="st1 st2">v</tspan><tspan x="38.6" y="0" class="st1 st2">ersion=&quot;1.0&quot; en</tspan><tspan x="114.6" y="0" class="st1 st2">c</tspan><tspan x="119.9" y="0" class="st1 st2">od</tspan><tspan x="133.3" y="0" class="st1 st2">-</tspan><tspan x="0" y="14.4" class="st1 st2">ing=&quot;utf-8&quot;?&gt;</tspan><tspan x="0" y="28.8" class="st1 st2">&lt;!-- </tspan><tspan x="19.8" y="28.8" class="st1 st2">G</tspan><tspan x="27.6" y="28.8" class="st1 st2">ene</tspan><tspan x="46.3" y="28.8" class="st1 st2">r</tspan><tspan x="50.2" y="28.8" class="st1 st2">a</tspan><tspan x="55.9" y="28.8" class="st1 st2">t</tspan><tspan x="59.8" y="28.8" class="st1 st2">o</tspan><tspan x="66.4" y="28.8" class="st1 st2">r</tspan><tspan x="70.4" y="28.8" class="st1 st2">: </tspan><tspan x="75.5" y="28.8" class="st1 st2">A</tspan><tspan x="82.7" y="28.8" class="st1 st2">dobe </tspan><tspan x="111.4" y="28.8" class="st1 st2">I</tspan><tspan x="114.4" y="28.8" class="st1 st2">llust</tspan><tspan x="135.4" y="28.8" class="st1 st2">r</tspan><tspan x="139.3" y="28.8" class="st1 st2">a</tspan><tspan x="145" y="28.8" class="st1 st2">t</tspan><tspan x="148.9" y="28.8" class="st1 st2">or </tspan><tspan x="0" y="43.2" class="st1 st2">26.0.1, SVG Expo</tspan><tspan x="82.4" y="43.2" class="st1 st2">r</tspan><tspan x="86.6" y="43.2" class="st1 st2">t </tspan><tspan x="93.1" y="43.2" class="st1 st2">P</tspan><tspan x="99.5" y="43.2" class="st1 st2">lug-</tspan><tspan x="119.3" y="43.2" class="st1 st2">I</tspan><tspan x="122.3" y="43.2" class="st1 st2">n . SVG </tspan><tspan x="0" y="57.6" class="st1 st2">V</tspan><tspan x="6.3" y="57.6" class="st1 st2">ersion: 6.00 Build 0)  --&gt;</tspan><tspan x="0" y="72" class="st1 st2">&lt;s</tspan><tspan x="11.9" y="72" class="st1 st2">v</tspan><tspan x="17.6" y="72" class="st1 st2">g </tspan><tspan x="26.8" y="72" class="st1 st2">v</tspan><tspan x="32.5" y="72" class="st1 st2">ersion=&quot;1.1&quot; id=&quot;L</tspan><tspan x="122.2" y="72" class="st1 st2">a</tspan><tspan x="127.9" y="72" class="st1 st2">y</tspan><tspan x="133.4" y="72" class="st1 st2">er_1&quot; </tspan><tspan x="0" y="86.4" class="st1 st2">xmlns=&quot;</tspan><tspan x="41" y="86.4" class="st1 st2">h</tspan><tspan x="47.6" y="86.4" class="st1 st2">ttp://</tspan><tspan x="73.1" y="86.4" class="st1 st2">w</tspan><tspan x="82.1" y="86.4" class="st1 st2">w</tspan><tspan x="90.9" y="86.4" class="st1 st2">-</tspan></text>
<rect x="90" y="72" class="st0" width="173" height="97"/>
<text transform="matrix(1 0 0 1 90.0001 80.52)"><tspan x="0" y="0" class="st1 st2">&lt;?xml </tspan><tspan x="33" y="0" class="st1 st2">v</tspan><tspan x="38.6" y="0" class="st1 st2">ersion=&quot;1.0&quot; en</tspan><tspan x="114.6" y="0" class="st1 st2">c</tspan><tspan x="119.9" y="0" class="st1 st2">od</tspan><tspan x="133.3" y="0" class="st1 st2">-</tspan><tspan x="0" y="14.4" class="st1 st2">ing=&quot;utf-8&quot;?&gt;</tspan><tspan x="0" y="28.8" class="st1 st2">&lt;!-- </tspan><tspan x="19.8" y="28.8" class="st1 st2">G</tspan><tspan x="27.6" y="28.8" class="st1 st2">ene</tspan><tspan x="46.3" y="28.8" class="st1 st2">r</tspan><tspan x="50.2" y="28.8" class="st1 st2">a</tspan><tspan x="55.9" y="28.8" class="st1 st2">t</tspan><tspan x="59.8" y="28.8" class="st1 st2">o</tspan><tspan x="66.4" y="28.8" class="st1 st2">r</tspan><tspan x="70.4" y="28.8" class="st1 st2">: </tspan><tspan x="75.5" y="28.8" class="st1 st2">A</tspan><tspan x="82.7" y="28.8" class="st1 st2">dobe </tspan><tspan x="111.4" y="28.8" class="st1 st2">I</tspan><tspan x="114.4" y="28.8" class="st1 st2">llust</tspan><tspan x="135.4" y="28.8" class="st1 st2">r</tspan><tspan x="139.3" y="28.8" class="st1 st2">a</tspan><tspan x="145" y="28.8" class="st1 st2">t</tspan><tspan x="148.9" y="28.8" class="st1 st2">or </tspan><tspan x="0" y="43.2" class="st1 st2">26.0.1, SVG Expo</tspan><tspan x="82.4" y="43.2" class="st1 st2">r</tspan><tspan x="86.6" y="43.2" class="st1 st2">t </tspan><tspan x="93.1" y="43.2" class="st1 st2">P</tspan><tspan x="99.5" y="43.2" class="st1 st2">lug-</tspan><tspan x="119.3" y="43.2" class="st1 st2">I</tspan><tspan x="122.3" y="43.2" class="st1 st2">n . SVG </tspan><tspan x="0" y="57.6" class="st1 st2">V</tspan><tspan x="6.3" y="57.6" class="st1 st2">ersion: 6.00 Build 0)  --&gt;</tspan><tspan x="0" y="72" class="st1 st2">&lt;s</tspan><tspan x="11.9" y="72" class="st1 st2">v</tspan><tspan x="17.6" y="72" class="st1 st2">g </tspan><tspan x="26.8" y="72" class="st1 st2">v</tspan><tspan x="32.5" y="72" class="st1 st2">ersion=&quot;1.1&quot; id=&quot;L</tspan><tspan x="122.2" y="72" class="st1 st2">a</tspan><tspan x="127.9" y="72" class="st1 st2">y</tspan><tspan x="133.4" y="72" class="st1 st2">er_1&quot; </tspan><tspan x="0" y="86.4" class="st1 st2">xmlns=&quot;</tspan><tspan x="41" y="86.4" class="st1 st2">h</tspan><tspan x="47.6" y="86.4" class="st1 st2">ttp://</tspan><tspan x="73.1" y="86.4" class="st1 st2">w</tspan><tspan x="82.1" y="86.4" class="st1 st2">w</tspan><tspan x="90.9" y="86.4" class="st1 st2">-</tspan></text>
<rect x="90" y="72" class="st0" width="173" height="97"/>
<text transform="matrix(1 0 0 1 90.0001 80.52)"><tspan x="0" y="0" class="st1 st2">&lt;?xml </tspan><tspan x="33" y="0" class="st1 st2">v</tspan><tspan x="38.6" y="0" class="st1 st2">ersion=&quot;1.0&quot; en</tspan><tspan x="114.6" y="0" class="st1 st2">c</tspan><tspan x="119.9" y="0" class="st1 st2">od</tspan><tspan x="133.3" y="0" class="st1 st2">-</tspan><tspan x="0" y="14.4" class="st1 st2">ing=&quot;utf-8&quot;?&gt;</tspan><tspan x="0" y="28.8" class="st1 st2">&lt;!-- </tspan><tspan x="19.8" y="28.8" class="st1 st2">G</tspan><tspan x="27.6" y="28.8" class="st1 st2">ene</tspan><tspan x="46.3" y="28.8" class="st1 st2">r</tspan><tspan x="50.2" y="28.8" class="st1 st2">a</tspan><tspan x="55.9" y="28.8" class="st1 st2">t</tspan><tspan x="59.8" y="28.8" class="st1 st2">o</tspan><tspan x="66.4" y="28.8" class="st1 st2">r</tspan><tspan x="70.4" y="28.8" class="st1 st2">: </tspan><tspan x="75.5" y="28.8" class="st1 st2">A</tspan><tspan x="82.7" y="28.8" class="st1 st2">dobe </tspan><tspan x="111.4" y="28.8" class="st1 st2">I</tspan><tspan x="114.4" y="28.8" class="st1 st2">llust</tspan><tspan x="135.4" y="28.8" class="st1 st2">r</tspan><tspan x="139.3" y="28.8" class="st1 st2">a</tspan><tspan x="145" y="28.8" class="st1 st2">t</tspan><tspan x="148.9" y="28.8" class="st1 st2">or </tspan><tspan x="0" y="43.2" class="st1 st2">26.0.1, SVG Expo</tspan><tspan x="82.4" y="43.2" class="st1 st2">r</tspan><tspan x="86.6" y="43.2" class="st1 st2">t </tspan><tspan x="93.1" y="43.2" class="st1 st2">P</tspan><tspan x="99.5" y="43.2" class="st1 st2">lug-</tspan><tspan x="119.3" y="43.2" class="st1 st2">I</tspan><tspan x="122.3" y="43.2" class="st1 st2">n . SVG </tspan><tspan x="0" y="57.6" class="st1 st2">V</tspan><tspan x="6.3" y="57.6" class="st1 st2">ersion: 6.00 Build 0)  --&gt;</tspan><tspan x="0" y="72" class="st1 st2">&lt;s</tspan><tspan x="11.9" y="72" class="st1 st2">v</tspan><tspan x="17.6" y="72" class="st1 st2">g </tspan><tspan x="26.8" y="72" class="st1 st2">v</tspan><tspan x="32.5" y="72" class="st1 st2">ersion=&quot;1.1&quot; id=&quot;L</tspan><tspan x="122.2" y="72" class="st1 st2">a</tspan><tspan x="127.9" y="72" class="st1 st2">y</tspan><tspan x="133.4" y="72" class="st1 st2">er_1&quot; </tspan><tspan x="0" y="86.4" class="st1 st2">xmlns=&quot;</tspan><tspan x="41" y="86.4" class="st1 st2">h</tspan><tspan x="47.6" y="86.4" class="st1 st2">ttp://</tspan><tspan x="73.1" y="86.4" class="st1 st2">w</tspan><tspan x="82.1" y="86.4" class="st1 st2">w</tspan><tspan x="90.9" y="86.4" class="st1 st2">-</tspan></text>
</svg>
